<?xml version="1.0" encoding="utf-8"?>
<!-- Generator: Adobe Illustrator 16.0.4, SVG Export Plug-In . SVG Version: 6.00 Build 0)  -->
<!DOCTYPE svg PUBLIC "-//W3C//DTD SVG 1.1//EN" "http://www.w3.org/Graphics/SVG/1.1/DTD/svg11.dtd">
<svg version="1.1" id="Layer_1" xmlns="http://www.w3.org/2000/svg" xmlns:xlink="http://www.w3.org/1999/xlink" x="0px" y="0px"
	 width="474px" height="199px" viewBox="-6.5 -7.5 474 199" enable-background="new -6.5 -7.5 474 199" xml:space="preserve">
<g>
	<path fill="#FFFFFF" d="M56.304,22.032c-4.08-4.896-10.2-7.956-16.728-7.956c-14.076,0-22.236,13.056-22.236,25.908
		S25.704,65.28,39.168,65.28c6.324,0,12.444-3.264,16.728-7.956v17.544c-5.508,2.448-11.016,4.488-16.932,4.488
		c-21.012,0-36.924-18.36-36.924-38.76c0-21.42,14.892-40.188,37.128-40.188c5.916,0,11.628,1.632,16.728,4.488v17.748h0.408V22.032
		z"/>
	<path fill="#FFFFFF" d="M114.444,79.152c-23.052,0-37.128-17.544-37.128-39.78S92.004,0,114.444,0s37.128,17.136,37.128,39.372
		C151.776,61.608,137.496,79.152,114.444,79.152z M114.444,14.484c-13.872,0-21.828,12.24-21.828,24.48
		c0,11.628,5.916,25.908,21.828,25.908c16.32,0,21.828-14.076,21.828-25.908C136.476,26.724,128.316,14.484,114.444,14.484z"/>
	<path fill="#FFFFFF" d="M173.808,2.04h20.808c21.624,0,36.312,16.32,36.312,37.74c0,21.012-14.892,37.536-36.312,37.536h-20.808
		V2.04z M188.292,64.464h2.448c17.952,0,24.888-9.996,24.888-24.684c0-16.32-8.364-24.684-24.888-24.684h-2.448V64.464z"/>
	<polygon fill="#FFFFFF" points="267.648,14.688 267.648,31.212 291.108,31.212 291.108,43.86 267.648,43.86 267.648,64.464 
		292.127,64.464 292.127,77.316 253.368,77.316 253.368,2.04 292.127,2.04 292.127,14.688 	"/>
	<path fill="#FFFFFF" d="M16.524,164.424l-7.548,16.729H0l31.824-69.769l31.824,69.564h-8.976l-7.548-16.729L16.524,164.424
		L16.524,164.424z M31.824,129.744l-12.036,26.928h23.664L31.824,129.744z"/>
	<polygon fill="#FFFFFF" points="94.044,136.884 93.636,136.884 85.884,180.948 77.316,180.948 90.984,111.384 114.036,164.016 
		136.68,111.384 150.348,180.948 141.984,180.948 133.824,136.884 133.824,136.884 114.036,182.376 	"/>
	<polygon fill="#FFFFFF" points="171.156,114.036 206.856,114.036 206.856,121.992 179.52,121.992 179.52,140.556 206.448,140.556 
		206.448,147.9 179.52,147.9 179.52,173.196 206.856,173.196 206.856,180.948 171.156,180.948 	"/>
	<path fill="#FFFFFF" d="M272.136,180.948h-9.996l-19.788-28.356h-3.265v28.356h-8.364v-66.912h9.997c5.915,0,12.239,0,17.544,3.06
		c5.508,3.265,8.976,9.385,8.976,15.912c0,9.384-6.324,17.544-16.116,18.564L272.136,180.948z M238.883,145.86h2.856
		c8.568,0,17.748-1.633,17.748-12.24c0-10.608-9.996-12.036-17.952-12.036h-2.244v24.072L238.883,145.86L238.883,145.86z"/>
	<rect x="291.923" y="114.036" fill="#FFFFFF" width="8.364" height="66.912"/>
	<path fill="#FFFFFF" d="M374.543,126.888c-4.691-4.08-11.424-6.731-17.543-6.731c-14.893,0-26.316,12.443-26.316,27.132
		c0,14.688,11.424,27.132,26.111,27.132c6.732,0,12.854-2.448,17.748-6.936v9.792c-4.895,3.06-11.627,4.691-17.543,4.691
		c-19.176,0-34.68-15.3-34.68-34.476c0-19.788,15.912-35.292,35.496-35.292c5.916,0,11.627,1.428,16.932,4.488L374.543,126.888
		L374.543,126.888L374.543,126.888z"/>
	<path fill="#FFFFFF" d="M406.98,164.424l-7.549,16.729h-8.977l31.824-69.564l31.824,69.564h-9.18l-7.549-16.729H406.98
		L406.98,164.424z M422.279,129.744l-12.035,26.928h23.867L422.279,129.744z"/>
	<path fill="#FFFFFF" d="M352.92,48.348c-2.244,3.672-4.691,7.752-6.936,12.036c-2.244,4.284-4.693,8.568-7.141,12.852
		c-2.447,4.08-5.305,8.364-8.363,12.24c-3.061,3.876-6.121,7.14-9.793,10.2c-3.672,3.061-7.547,5.305-11.627,7.141
		c-4.081,1.632-9.181,2.855-14.485,2.855c-1.632,0-3.672-0.204-5.508-0.612c-2.04-0.203-3.876-1.02-5.508-2.04
		c-1.632-0.815-3.061-2.04-4.08-3.672c-1.021-1.428-1.632-3.264-1.632-5.508c0-1.632,0.203-3.264,1.02-4.488
		c0.816-1.428,1.632-2.448,3.061-3.264c1.02-0.816,2.447-1.632,4.079-2.04c1.633-0.612,3.061-0.816,4.692-0.816
		c0.816,0,1.632,0,2.244,0s1.428,0.204,2.04,0.204v0.816c-2.856,0.204-4.896,1.02-6.937,3.06c-1.632,2.04-2.447,4.08-2.447,6.936
		c0,3.06,0.815,5.508,2.447,7.14c1.633,1.632,4.488,2.856,8.364,2.856c3.672,0,6.937-0.816,9.996-2.856
		c3.059-2.04,6.12-4.487,9.18-7.548c3.061-3.06,5.916-6.732,8.363-10.608c2.449-3.876,5.305-7.956,7.549-12.24
		c2.447-4.08,4.691-8.364,6.936-12.24s4.08-7.548,6.121-10.608h-8.773l0.816-1.632h8.568c1.631-3.06,3.672-6.12,6.119-9.792
		c2.244-3.672,4.896-6.936,7.752-9.996c3.061-3.06,6.121-5.508,9.793-7.752c3.672-2.04,7.141-3.06,11.016-3.06
		c1.02,0,2.447,0.204,3.672,0.612c1.02,0.204,2.244,0.816,3.061,1.428c0.816,0.612,1.631,1.428,2.244,2.244
		c0.611,0.816,0.816,2.04,0.816,3.264c0,2.244-0.816,3.672-2.244,4.692c-1.633,1.02-3.266,1.632-5.305,1.632
		c-0.611,0-1.02,0-1.633-0.204c0.613-1.02,1.021-2.244,1.43-3.264c0.406-1.02,0.611-2.448,0.611-3.876
		c0-1.632-0.205-3.06-1.02-3.876c-0.816-0.816-1.633-1.428-2.857-1.428c-1.428,0-3.059,0.612-4.691,1.632s-3.264,2.856-4.896,4.488
		c-1.631,2.04-3.059,3.876-4.691,6.12s-3.061,4.488-4.08,6.732c-1.428,2.244-2.447,4.08-3.672,6.12
		c-1.02,2.04-2.041,3.264-2.447,4.488h22.439l-1.02,1.632h-22.441l0,0H352.92L352.92,48.348z"/>
	<path fill="#FFFFFF" d="M410.039,54.672c-1.02,1.632-2.447,3.06-4.08,4.08c-1.631,1.02-3.264,2.04-5.303,2.04
		c-1.428,0-2.449-0.204-3.672-0.816c-1.225-0.612-2.041-1.428-2.857-2.448c-0.814,3.06-2.039,5.916-3.672,8.364
		c-1.631,2.448-3.672,4.896-5.916,6.936s-4.895,3.672-7.752,4.692c-2.855,1.02-5.916,1.632-8.975,1.632
		c-3.266,0-5.916-0.816-7.752-2.856c-2.041-2.04-3.061-4.488-3.061-7.752c0-3.06,0.816-6.12,2.447-8.976
		c1.633-2.856,3.672-5.304,6.121-7.548c2.447-2.244,5.303-3.876,8.363-5.304c3.061-1.428,6.119-2.04,9.18-2.04
		s5.916,0.816,7.549,2.448c2.039,1.632,3.061,3.876,3.264,6.12c0.203,1.632,0.816,3.264,2.039,4.08
		c1.021,1.02,2.449,1.632,4.08,1.632c1.633,0,3.061-0.612,4.488-1.428c1.428-0.816,3.061-2.448,4.488-4.08L410.039,54.672z
		 M373.523,76.704c1.428-1.02,2.855-2.244,4.08-3.876c1.428-1.632,2.447-3.264,3.877-5.304c1.02-2.04,2.244-3.876,3.059-6.12
		c0.816-2.04,1.428-3.876,2.041-5.916c0.611-2.04,0.816-3.264,0.816-4.692c0-1.428-0.205-2.448-0.816-3.264
		c-0.613-0.816-1.633-1.02-3.061-1.02s-3.061,0.612-4.488,1.428c-1.428,1.02-2.855,2.244-4.08,3.876
		c-1.428,1.632-2.447,3.264-3.875,5.304c-1.02,2.04-2.244,3.876-3.061,6.12c-0.816,2.04-1.428,3.876-2.039,5.916
		c-0.613,2.04-0.816,3.264-0.816,4.692c0,1.428,0.203,2.448,0.816,3.264c0.611,0.816,1.631,1.02,3.059,1.02
		S372.096,77.724,373.523,76.704z"/>
	<path fill="#FFFFFF" d="M392.699,77.724c3.061-5.304,6.121-10.2,9.18-15.504c3.061-4.896,6.121-10.2,9.182-15.504l9.996-0.204
		l-11.629,16.32l0.203,0.204c2.244-2.856,4.08-4.896,6.121-6.732c1.631-1.632,3.264-3.06,4.488-4.08
		c1.428-1.02,2.447-2.04,3.264-2.448c0.816-0.408,1.633-1.02,2.039-1.428c0.613-0.612,1.43-1.02,2.041-1.632
		c0.611-0.204,1.02-0.612,2.039-0.816c0.816-0.204,1.633-0.204,2.857-0.204c1.02,0,2.447,0,4.08-0.204
		c-1.021,1.632-2.244,3.264-3.061,4.896c-0.816,1.632-1.428,3.672-1.428,5.508c0,2.448,1.428,3.876,3.875,3.876
		c0.816,0,1.633-0.204,2.449-0.612c0.814-0.204,1.631-0.816,2.244-1.428c0.814-0.612,1.428-1.02,2.039-1.632
		c0.611-0.612,1.02-1.02,1.633-1.632l0.203,0.612c-1.633,2.04-3.672,3.672-5.916,4.896c-2.244,1.428-4.691,2.04-7.141,2.04
		c-2.447,0-4.08-0.612-5.508-2.04c-1.428-1.02-2.039-3.06-2.039-5.508c0-1.632,0.611-3.06,1.428-4.488l-0.203-0.204
		c-2.449,1.632-4.693,3.672-7.141,5.916c-2.244,2.244-4.488,4.488-6.324,6.936c-2.041,2.448-3.672,4.896-5.305,7.548
		c-1.631,2.448-3.059,4.896-4.488,7.548H392.699z"/>
</g>
</svg>
