<?xml version="1.0" encoding="utf-8"?>
<!-- Generator: Adobe Illustrator 21.1.0, SVG Export Plug-In . SVG Version: 6.00 Build 0)  -->
<svg version="1.1" id="Layer_1" xmlns="http://www.w3.org/2000/svg" xmlns:xlink="http://www.w3.org/1999/xlink" x="0px" y="0px"
	 viewBox="0 0 137.2 55.5" style="enable-background:new 0 0 137.2 55.5;" xml:space="preserve">
<g>
	<path d="M17.1,6.9c-1.2-1.5-3.1-2.4-5-2.4c-4.2,0-6.7,3.9-6.7,7.8s2.5,7.6,6.6,7.6c1.9,0,3.8-1,5-2.4v5.3c-1.7,0.7-3.3,1.4-5.1,1.4
		c-6.3,0-11.1-5.5-11.1-11.7C0.8,6,5.2,0.3,12,0.3c1.8,0,3.5,0.5,5,1.4V7h0.1V6.9z"/>
	<path d="M34.7,24.1c-7,0-11.2-5.3-11.2-12S27.9,0.2,34.7,0.2s11.2,5.2,11.2,11.9C45.9,18.8,41.6,24.1,34.7,24.1z M34.7,4.6
		c-4.2,0-6.6,3.7-6.6,7.4c0,3.5,1.8,7.8,6.6,7.8c4.9,0,6.6-4.2,6.6-7.8C41.3,8.3,38.9,4.6,34.7,4.6z"/>
	<path d="M52.6,0.8h6.3c6.5,0,11,4.9,11,11.4c0,6.3-4.5,11.3-11,11.3h-6.3V0.8z M57,19.7h0.7c5.4,0,7.5-3,7.5-7.4
		c0-4.9-2.5-7.4-7.5-7.4H57V19.7z"/>
	<polygon points="80.9,4.6 80.9,9.6 88,9.6 88,13.4 80.9,13.4 80.9,19.7 88.3,19.7 88.3,23.5 76.6,23.5 76.6,0.8 88.3,0.8 88.3,4.6 
			"/>
	<path d="M5.1,49.8l-2.3,5H0.1l9.6-21.1l9.6,21h-2.7l-2.3-5L5.1,49.8L5.1,49.8z M9.7,39.4l-3.6,8.1h7.1L9.7,39.4z"/>
	<polygon points="28.5,41.5 28.4,41.5 26.1,54.8 23.5,54.8 27.6,33.8 34.5,49.7 41.4,33.8 45.5,54.8 43,54.8 40.5,41.5 40.5,41.5 
		34.5,55.2 	"/>
	<polygon points="51.8,34.6 62.6,34.6 62.6,37 54.3,37 54.3,42.6 62.4,42.6 62.4,44.8 54.3,44.8 54.3,52.5 62.6,52.5 62.6,54.8 
		51.8,54.8 	"/>
	<path d="M82.3,54.8h-3l-6-8.6h-1v8.6h-2.5V34.6h3c1.8,0,3.7,0,5.3,0.9c1.7,1,2.7,2.8,2.7,4.8c0,2.8-1.9,5.3-4.9,5.6L82.3,54.8z
		 M72.2,44.2h0.9c2.6,0,5.4-0.5,5.4-3.7c0-3.2-3-3.6-5.4-3.6h-0.7v7.3L72.2,44.2L72.2,44.2z"/>
	<rect x="88.2" y="34.6" width="2.5" height="20.2"/>
	<path d="M113.2,38.5c-1.4-1.2-3.4-2-5.3-2c-4.5,0-7.9,3.8-7.9,8.2c0,4.4,3.4,8.2,7.9,8.2c2,0,3.9-0.7,5.4-2.1v3
		c-1.5,0.9-3.5,1.4-5.3,1.4c-5.8,0-10.5-4.6-10.5-10.4c0-6,4.8-10.6,10.7-10.6c1.8,0,3.5,0.4,5.1,1.4L113.2,38.5L113.2,38.5
		L113.2,38.5z"/>
	<path d="M122.9,49.8l-2.3,5H118l9.6-21l9.6,21h-2.8l-2.3-5H122.9L122.9,49.8z M127.6,39.4l-3.6,8.1h7.2L127.6,39.4z"/>
	<path d="M106.6,14.8c-0.7,1.1-1.4,2.3-2.1,3.6c-0.7,1.3-1.4,2.6-2.2,3.9c-0.7,1.2-1.6,2.5-2.5,3.7c-0.9,1.2-1.8,2.2-3,3.1
		c-1.1,0.9-2.3,1.6-3.5,2.2c-1.2,0.5-2.8,0.9-4.4,0.9c-0.5,0-1.1-0.1-1.7-0.2c-0.6-0.1-1.2-0.3-1.7-0.6c-0.5-0.2-0.9-0.6-1.2-1.1
		c-0.3-0.4-0.5-1-0.5-1.7c0-0.5,0.1-1,0.3-1.4c0.2-0.4,0.5-0.7,0.9-1c0.3-0.2,0.7-0.5,1.2-0.6c0.5-0.2,0.9-0.2,1.4-0.2
		c0.2,0,0.5,0,0.7,0c0.2,0,0.4,0.1,0.6,0.1v0.2c-0.9,0.1-1.5,0.3-2.1,0.9c-0.5,0.6-0.7,1.2-0.7,2.1c0,0.9,0.2,1.7,0.7,2.2
		c0.5,0.5,1.4,0.9,2.5,0.9c1.1,0,2.1-0.2,3-0.9c0.9-0.6,1.8-1.4,2.8-2.3c0.9-0.9,1.8-2,2.5-3.2c0.7-1.2,1.6-2.4,2.3-3.7
		c0.7-1.2,1.4-2.5,2.1-3.7s1.2-2.3,1.8-3.2h-2.6l0.2-0.5h2.6c0.5-0.9,1.1-1.8,1.8-3c0.7-1.1,1.5-2.1,2.3-3c0.9-0.9,1.8-1.7,3-2.3
		c1.1-0.6,2.2-0.9,3.3-0.9c0.3,0,0.7,0.1,1.1,0.2c0.3,0.1,0.7,0.2,0.9,0.4c0.2,0.2,0.5,0.4,0.7,0.7c0.2,0.2,0.2,0.6,0.2,1
		c0,0.7-0.2,1.1-0.7,1.4c-0.5,0.3-1,0.5-1.6,0.5c-0.2,0-0.3,0-0.5-0.1c0.2-0.3,0.3-0.7,0.4-1c0.1-0.3,0.2-0.7,0.2-1.2
		c0-0.5-0.1-0.9-0.3-1.2c-0.2-0.2-0.5-0.4-0.9-0.4c-0.4,0-0.9,0.2-1.4,0.5s-1,0.9-1.5,1.4c-0.5,0.6-0.9,1.2-1.4,1.8
		c-0.5,0.7-0.9,1.4-1.2,2c-0.4,0.7-0.7,1.2-1.1,1.8c-0.3,0.6-0.6,1-0.7,1.4h6.8l-0.3,0.5L106.6,14.8L106.6,14.8L106.6,14.8
		L106.6,14.8z"/>
	<path d="M123.9,16.7c-0.3,0.5-0.7,0.9-1.2,1.2c-0.5,0.3-1,0.6-1.6,0.6c-0.4,0-0.7-0.1-1.1-0.2c-0.4-0.2-0.6-0.4-0.9-0.7
		c-0.2,0.9-0.6,1.8-1.1,2.5c-0.5,0.7-1.1,1.5-1.8,2.1c-0.7,0.6-1.5,1.1-2.3,1.4c-0.9,0.3-1.8,0.5-2.7,0.5c-1,0-1.8-0.2-2.3-0.9
		c-0.6-0.6-0.9-1.4-0.9-2.3c0-0.9,0.2-1.8,0.7-2.7c0.5-0.9,1.1-1.6,1.8-2.3c0.7-0.7,1.6-1.2,2.5-1.6c0.9-0.4,1.8-0.6,2.8-0.6
		s1.8,0.2,2.3,0.7c0.6,0.5,0.9,1.2,1,1.8c0.1,0.5,0.2,1,0.6,1.2c0.3,0.3,0.7,0.5,1.2,0.5c0.5,0,0.9-0.2,1.4-0.4
		c0.4-0.2,0.9-0.7,1.4-1.2L123.9,16.7z M112.8,23.4c0.4-0.3,0.9-0.7,1.2-1.2c0.4-0.5,0.7-1,1.2-1.6c0.3-0.6,0.7-1.2,0.9-1.8
		c0.2-0.6,0.4-1.2,0.6-1.8c0.2-0.6,0.2-1,0.2-1.4c0-0.4-0.1-0.7-0.2-1c-0.2-0.2-0.5-0.3-0.9-0.3c-0.4,0-0.9,0.2-1.4,0.4
		c-0.4,0.3-0.9,0.7-1.2,1.2c-0.4,0.5-0.7,1-1.2,1.6c-0.3,0.6-0.7,1.2-0.9,1.8c-0.2,0.6-0.4,1.2-0.6,1.8c-0.2,0.6-0.2,1-0.2,1.4
		c0,0.4,0.1,0.7,0.2,1c0.2,0.2,0.5,0.3,0.9,0.3S112.4,23.7,112.8,23.4z"/>
	<path d="M118.6,23.7c0.9-1.6,1.8-3.1,2.8-4.7c0.9-1.5,1.8-3.1,2.8-4.7l3-0.1l-3.5,4.9l0.1,0.1c0.7-0.9,1.2-1.5,1.8-2
		c0.5-0.5,1-0.9,1.4-1.2c0.4-0.3,0.7-0.6,1-0.7c0.2-0.1,0.5-0.3,0.6-0.4c0.2-0.2,0.4-0.3,0.6-0.5c0.2-0.1,0.3-0.2,0.6-0.2
		c0.2-0.1,0.5-0.1,0.9-0.1c0.3,0,0.7,0,1.2-0.1c-0.3,0.5-0.7,1-0.9,1.5c-0.2,0.5-0.4,1.1-0.4,1.7c0,0.7,0.4,1.2,1.2,1.2
		c0.2,0,0.5-0.1,0.7-0.2c0.2-0.1,0.5-0.2,0.7-0.4c0.2-0.2,0.4-0.3,0.6-0.5c0.2-0.2,0.3-0.3,0.5-0.5l0.1,0.2
		c-0.5,0.6-1.1,1.1-1.8,1.5c-0.7,0.4-1.4,0.6-2.2,0.6c-0.7,0-1.2-0.2-1.7-0.6c-0.4-0.3-0.6-0.9-0.6-1.7c0-0.5,0.2-0.9,0.4-1.4
		l-0.1-0.1c-0.7,0.5-1.4,1.1-2.2,1.8c-0.7,0.7-1.4,1.4-1.9,2.1c-0.6,0.7-1.1,1.5-1.6,2.3c-0.5,0.7-0.9,1.5-1.4,2.3
		C121.4,23.7,118.6,23.7,118.6,23.7z"/>
</g>
</svg>
